<svg width="422" height="104" viewBox="0 0 422 104" fill="none" xmlns="http://www.w3.org/2000/svg">
<path fill-rule="evenodd" clip-rule="evenodd" d="M175.532 42.5305C175.532 36.3238 175.516 31.7585 175.538 27.1945C175.556 23.2012 176.951 19.8798 181.422 19.9278C185.858 19.9772 187.267 23.3398 187.282 27.2998C187.316 36.8358 187.307 46.3692 187.275 55.9052C187.263 59.2305 186.287 62.1732 182.82 63.3132C179.468 64.4172 177.451 62.0972 175.594 59.8385C166.174 48.3785 156.782 36.8972 147.348 25.3865C144.784 26.9012 145.91 29.1118 145.878 30.8518C145.72 39.4972 145.924 48.1505 145.671 56.7918C145.566 60.3892 143.664 63.5185 139.663 63.4492C135.724 63.3825 134.015 60.6212 134.028 56.6758C134.079 40.9318 134.082 25.1878 134.02 9.44517C134.01 6.52517 134.742 4.0585 137.54 2.8945C140.704 1.57984 143.067 3.21584 145.019 5.60251C152.878 15.2052 160.72 24.8225 168.591 34.4145C170.491 36.7292 172.482 38.9705 175.532 42.5305Z" fill="#231F20"/>
<path fill-rule="evenodd" clip-rule="evenodd" d="M391.596 22.6281C389.677 26.6548 387.932 30.6854 385.86 34.5441C384.056 37.9041 385.236 38.4908 388.555 38.6641C400.732 39.3001 400.761 39.3854 395.26 28.2814C394.323 26.3894 393.973 24.0668 391.596 22.6281ZM394.936 48.8881C393.385 48.8974 391.799 49.1081 390.288 48.8628C382.313 47.5681 376.747 49.8748 374.409 58.3134C373.396 61.9761 370.712 64.8281 366.448 63.0241C361.889 61.0961 362.287 57.2841 364.087 53.4854C371.472 37.9081 378.895 22.3481 386.28 6.77078C387.513 4.16944 389.291 2.44944 392.359 2.48011C395.256 2.50944 396.683 4.45078 397.765 6.71744C403.001 17.6908 408.349 28.6148 413.335 39.7028C415.631 44.8148 413.185 48.4708 407.568 48.8268C403.372 49.0934 399.148 48.8801 394.936 48.8881" fill="#231F20"/>
<path fill-rule="evenodd" clip-rule="evenodd" d="M60.5447 25.3208C60.5447 19.9955 60.5634 14.6688 60.5394 9.3435C60.5207 5.51817 61.9394 2.5915 66.1007 2.59284C70.2847 2.59417 71.6927 5.6915 71.73 9.38884C71.8234 18.7088 71.586 28.0355 71.8834 37.3462C72.2114 47.6422 77.0007 52.9235 85.818 53.4502C95.0394 54.0008 101.589 48.1875 102.017 38.8982C102.211 34.6902 101.919 30.4582 102.166 26.2555C102.362 22.9115 103.819 20.0595 107.646 19.8995C111.869 19.7222 113.603 22.7195 113.771 26.3088C114.095 33.1608 114.363 40.0608 112.429 46.7862C108.898 59.0528 97.1047 66.5008 83.5287 65.0382C70.9567 63.6835 61.386 53.8475 60.7247 41.2928C60.4447 35.9835 60.678 30.6462 60.678 25.3208H60.5447Z" fill="#231F20"/>
<path fill-rule="evenodd" clip-rule="evenodd" d="M14.6976 22.8528C16.4736 20.6061 18.0136 18.1061 20.091 16.1861C22.2723 14.1688 24.9976 14.1154 27.2683 16.3421C29.6989 18.7248 29.6536 21.4554 27.7456 24.1208C25.7069 26.9661 20.3709 29.1674 21.2376 31.8021C22.4869 35.6021 26.7269 38.4394 29.7536 41.6274C33.4176 45.4861 37.1563 49.2714 40.8456 53.1074C43.5176 55.8861 44.2589 58.9928 41.3243 61.8808C38.3563 64.8008 35.2549 63.9354 32.5949 61.1528C26.3656 54.6368 20.1843 48.0768 12.635 40.1128C12.635 46.8728 12.5483 51.8461 12.6643 56.8141C12.751 60.5021 11.1083 63.0128 7.56162 63.4301C3.41096 63.9181 1.18296 60.8288 1.12563 57.3528C0.85896 41.1634 0.869627 24.9661 1.12029 8.77543C1.17363 5.29544 3.21896 2.16877 7.45762 2.58344C11.5523 2.98477 12.7736 5.92477 12.667 9.72877C12.5563 13.6688 12.6416 17.6141 12.6416 21.5568C13.327 21.9888 14.0123 22.4208 14.6976 22.8528Z" fill="#231F20"/>
<path fill-rule="evenodd" clip-rule="evenodd" d="M327.755 0.976444C333.583 0.577778 339.404 2.45644 344.9 5.59777C348.494 7.65244 350.096 10.8271 348.328 14.5404C346.388 18.6178 342.87 17.3378 339.732 15.8178C335.287 13.6671 330.655 12.0804 325.692 12.3978C315.712 13.0351 307.87 20.0124 306.195 29.4084C304.46 39.1417 309.627 48.3017 319.287 52.2697C321.718 53.2671 324.334 53.9537 326.931 54.3657C330.443 54.9231 333.984 55.6844 333.714 60.0111C333.419 64.6911 329.568 65.0244 325.802 65.0657C312.63 65.2111 299.156 55.0044 295.608 42.1177C289.734 20.7831 304.955 0.939111 327.755 0.976444Z" fill="#231F20"/>
<path fill-rule="evenodd" clip-rule="evenodd" d="M232.021 32.9901C232.018 40.3021 232.054 47.6141 232.005 54.9261C231.975 59.1634 231.218 63.5888 225.927 63.3794C221.167 63.1914 220.546 59.1594 220.591 55.0101C220.723 43.2674 220.466 31.5181 220.721 19.7794C220.814 15.4848 219.603 13.7514 215.151 14.1581C212.338 14.4141 209.349 14.2354 206.625 13.5301C203.963 12.8421 201.807 10.8275 202.209 7.70078C202.617 4.50745 204.615 2.51678 208.031 2.48878C214.013 2.43945 219.999 2.34212 225.979 2.50878C231.019 2.64878 231.963 6.33012 232.002 10.3888C232.075 17.9221 232.023 25.4568 232.021 32.9901Z" fill="#231F20"/>
<path fill-rule="evenodd" clip-rule="evenodd" d="M264.716 40.4771C264.716 35.3744 264.645 30.2717 264.74 25.1717C264.805 21.5144 265.971 18.5357 270.328 18.3931C274.739 18.2491 276.244 21.3731 276.323 24.8637C276.561 35.5051 276.528 46.1571 276.349 56.8011C276.287 60.4877 274.16 63.5451 270.299 63.4091C266.484 63.2744 264.687 60.3251 264.708 56.4491C264.737 51.1251 264.716 45.8011 264.716 40.4771Z" fill="#231F20"/>
<path fill-rule="evenodd" clip-rule="evenodd" d="M276.264 6.29936C275.515 9.95935 273.769 12.074 270.332 11.942C266.967 11.8127 264.832 9.75135 264.892 6.47269C264.959 2.88736 267.136 0.9007 270.957 1.03937C274.705 1.17537 275.457 3.93803 276.264 6.29936Z" fill="#231F20"/>
<path fill-rule="evenodd" clip-rule="evenodd" d="M421.304 57.9667C420.904 61.0507 419.166 63.3867 415.963 63.4667C412.534 63.5533 410.13 61.548 410.114 57.8307C410.1 54.4867 412.239 52.3573 415.343 52.204C418.85 52.0293 420.888 54.2987 421.304 57.9667Z" fill="#231F20"/>
<path fill-rule="evenodd" clip-rule="evenodd" d="M350.057 53.0631C349.869 57.2111 347.662 59.3391 344.246 59.2884C341.116 59.2431 338.966 57.0351 338.976 53.7191C338.988 50.1111 341.12 47.9231 344.725 48.0031C348.005 48.0764 349.75 50.2231 350.057 53.0631Z" fill="#231F20"/>
<path fill-rule="evenodd" clip-rule="evenodd" d="M41.6 8.2426C40.8907 11.4479 39.2333 13.7239 35.8693 13.6146C32.3467 13.5012 30 11.4426 30.212 7.7986C30.3973 4.65462 32.38 2.48929 35.764 2.52929C39.444 2.57329 41.0813 4.97595 41.6 8.2426Z" fill="#231F20"/>
<path fill-rule="evenodd" clip-rule="evenodd" d="M107.557 2.48557C111.169 2.55223 113.25 4.6269 113.536 7.74024C113.878 11.4456 111.198 13.7443 107.864 13.7669C104.829 13.7896 102.296 11.5256 102.306 8.20024C102.317 5.0069 104.326 2.9189 107.557 2.48557Z" fill="#231F20"/>
<path fill-rule="evenodd" clip-rule="evenodd" d="M244.758 13.8514C241.842 13.2648 239.346 12.0741 239.287 8.48475C239.228 4.77674 241.2 2.54873 244.86 2.58206C248.196 2.61273 250.026 4.78341 250.132 8.13408C250.244 11.6768 247.966 13.1514 244.758 13.8514Z" fill="#231F20"/>
<path fill-rule="evenodd" clip-rule="evenodd" d="M181.816 2.45682C185.121 2.95682 187.073 4.98615 186.972 8.25548C186.868 11.6101 184.646 13.5435 181.278 13.4475C177.585 13.3408 175.378 11.1222 175.718 7.45548C176.022 4.16348 178.482 2.61682 181.816 2.45682Z" fill="#231F20"/>
<path d="M123.768 83.139V85.5359C123.002 84.8232 122.185 84.2906 121.314 83.938C120.452 83.5854 119.533 83.4091 118.557 83.4091C116.637 83.4091 115.167 83.998 114.146 85.1758C113.126 86.3461 112.616 88.0416 112.616 90.2622C112.616 92.4753 113.126 94.1707 114.146 95.3485C115.167 96.5188 116.637 97.104 118.557 97.104C119.533 97.104 120.452 96.9277 121.314 96.5751C122.185 96.2225 123.002 95.6899 123.768 94.9772V97.3516C122.972 97.8917 122.128 98.2968 121.236 98.5669C120.35 98.8369 119.413 98.972 118.422 98.972C115.879 98.972 113.876 98.1955 112.413 96.6426C110.95 95.0822 110.219 92.9554 110.219 90.2622C110.219 87.5615 110.95 85.4346 112.413 83.8817C113.876 82.3213 115.879 81.5411 118.422 81.5411C119.428 81.5411 120.373 81.6761 121.258 81.9462C122.151 82.2088 122.987 82.6064 123.768 83.139V83.139Z" fill="black"/>
<path d="M134.514 87.9778C134.282 87.8428 134.026 87.7452 133.749 87.6852C133.479 87.6177 133.179 87.584 132.849 87.584C131.678 87.584 130.778 87.9665 130.148 88.7317C129.525 89.4894 129.214 90.581 129.214 92.0063V98.6456H127.132V86.0423H129.214V88.0003C129.649 87.2351 130.216 86.6687 130.913 86.3011C131.611 85.926 132.459 85.7385 133.456 85.7385C133.599 85.7385 133.756 85.7497 133.929 85.7723C134.102 85.7873 134.293 85.8135 134.503 85.8511L134.514 87.9778Z" fill="black"/>
<path d="M147.016 91.8263V92.8391H137.496C137.586 94.2644 138.014 95.3522 138.779 96.1024C139.552 96.8451 140.624 97.2165 141.997 97.2165C142.793 97.2165 143.561 97.1189 144.304 96.9239C145.054 96.7288 145.797 96.4363 146.532 96.0462V98.0042C145.79 98.3192 145.028 98.5593 144.248 98.7243C143.468 98.8894 142.676 98.9719 141.874 98.9719C139.863 98.9719 138.269 98.3868 137.091 97.2165C135.921 96.0462 135.336 94.4632 135.336 92.4677C135.336 90.4047 135.891 88.7693 137.001 87.5614C138.119 86.3461 139.623 85.7385 141.513 85.7385C143.209 85.7385 144.548 86.2861 145.531 87.3814C146.521 88.4692 147.016 89.9508 147.016 91.8263V91.8263ZM144.946 91.2186C144.931 90.0858 144.612 89.1819 143.989 88.5067C143.374 87.8315 142.556 87.4939 141.536 87.4939C140.381 87.4939 139.454 87.8203 138.756 88.4729C138.066 89.1256 137.669 90.0446 137.564 91.2299L144.946 91.2186Z" fill="black"/>
<path d="M156.165 92.3102C154.492 92.3102 153.333 92.5015 152.688 92.8841C152.042 93.2667 151.72 93.9193 151.72 94.8421C151.72 95.5773 151.96 96.1624 152.44 96.5975C152.928 97.0252 153.588 97.239 154.421 97.239C155.568 97.239 156.487 96.8339 157.178 96.0237C157.875 95.2059 158.224 94.1219 158.224 92.7715V92.3102H156.165ZM160.295 91.455V98.6456H158.224V96.7326C157.751 97.4978 157.163 98.0642 156.457 98.4318C155.752 98.7919 154.889 98.9719 153.869 98.9719C152.579 98.9719 151.551 98.6118 150.786 97.8916C150.028 97.164 149.649 96.1924 149.649 94.9771C149.649 93.5593 150.122 92.4902 151.067 91.77C152.02 91.0498 153.438 90.6898 155.321 90.6898H158.224V90.4872C158.224 89.5345 157.909 88.7993 157.279 88.2816C156.656 87.7565 155.778 87.4939 154.646 87.4939C153.925 87.4939 153.224 87.5802 152.541 87.7527C151.859 87.9253 151.202 88.1841 150.572 88.5292V86.6162C151.33 86.3236 152.065 86.1061 152.778 85.9635C153.49 85.8135 154.184 85.7385 154.859 85.7385C156.682 85.7385 158.044 86.2111 158.944 87.1563C159.844 88.1016 160.295 89.5345 160.295 91.455V91.455Z" fill="black"/>
<path d="M166.619 82.4639V86.0423H170.884V87.6515H166.619V94.4933C166.619 95.521 166.758 96.1812 167.035 96.4738C167.32 96.7663 167.894 96.9126 168.757 96.9126H170.884V98.6456H168.757C167.159 98.6456 166.056 98.3492 165.448 97.7566C164.841 97.1564 164.537 96.0687 164.537 94.4933V87.6515H163.018V86.0423H164.537V82.4639H166.619Z" fill="black"/>
<path d="M173.618 86.0423H175.689V98.6456H173.618V86.0423ZM173.618 81.136H175.689V83.7579H173.618V81.136Z" fill="black"/>
<path d="M178.524 86.0424H180.719L184.657 96.6201L188.596 86.0424H190.79L186.064 98.6456H183.251L178.524 86.0424Z" fill="black"/>
<path d="M193.648 86.0423H195.719V98.6456H193.648V86.0423ZM193.648 81.136H195.719V83.7579H193.648V81.136Z" fill="black"/>
<path d="M202.088 82.4639V86.0423H206.353V87.6515H202.088V94.4933C202.088 95.521 202.227 96.1812 202.504 96.4738C202.789 96.7663 203.363 96.9126 204.226 96.9126H206.353V98.6456H204.226C202.628 98.6456 201.525 98.3492 200.918 97.7566C200.31 97.1564 200.006 96.0687 200.006 94.4933V87.6515H198.487V86.0423H200.006V82.4639H202.088Z" fill="black"/>
<path d="M214.331 99.8159C213.746 101.316 213.176 102.295 212.621 102.753C212.066 103.211 211.323 103.439 210.393 103.439H208.739V101.706H209.954C210.524 101.706 210.967 101.571 211.282 101.301C211.597 101.031 211.946 100.394 212.328 99.3883L212.7 98.443L207.602 86.0424H209.796L213.735 95.8999L217.673 86.0424H219.868L214.331 99.8159Z" fill="black"/>
<path d="M230.063 86.0423H232.133V98.6456H230.063V86.0423ZM230.063 81.136H232.133V83.7579H230.063V81.136Z" fill="black"/>
<path d="M246.931 91.0386V98.6456H244.86V91.1061C244.86 89.9133 244.628 89.0206 244.163 88.4279C243.698 87.8353 243 87.5389 242.07 87.5389C240.952 87.5389 240.07 87.8953 239.425 88.608C238.78 89.3206 238.458 90.2921 238.458 91.5225V98.6456H236.376V86.0423H238.458V88.0003C238.953 87.2426 239.534 86.6762 240.202 86.3011C240.877 85.926 241.653 85.7385 242.531 85.7385C243.979 85.7385 245.074 86.1886 245.817 87.0888C246.56 87.9816 246.931 89.2981 246.931 91.0386V91.0386Z" fill="black"/>
<path d="M271.091 83.139V85.5359C270.326 84.8232 269.508 84.2906 268.638 83.938C267.775 83.5854 266.856 83.4091 265.881 83.4091C263.96 83.4091 262.49 83.998 261.47 85.1758C260.45 86.3461 259.939 88.0416 259.939 90.2622C259.939 92.4753 260.45 94.1707 261.47 95.3485C262.49 96.5188 263.96 97.104 265.881 97.104C266.856 97.104 267.775 96.9277 268.638 96.5751C269.508 96.2225 270.326 95.6899 271.091 94.9772V97.3516C270.296 97.8917 269.452 98.2968 268.559 98.5669C267.674 98.8369 266.736 98.972 265.746 98.972C263.203 98.972 261.2 98.1955 259.737 96.6426C258.274 95.0822 257.542 92.9554 257.542 90.2622C257.542 87.5615 258.274 85.4346 259.737 83.8817C261.2 82.3213 263.203 81.5411 265.746 81.5411C266.751 81.5411 267.696 81.6761 268.582 81.9462C269.474 82.2088 270.311 82.6064 271.091 83.139Z" fill="black"/>
<path d="M279.418 87.4939C278.308 87.4939 277.43 87.929 276.785 88.7993C276.14 89.662 275.817 90.8473 275.817 92.3552C275.817 93.8631 276.136 95.0521 276.774 95.9224C277.419 96.7851 278.3 97.2165 279.418 97.2165C280.521 97.2165 281.395 96.7813 282.04 95.9111C282.685 95.0409 283.008 93.8556 283.008 92.3552C283.008 90.8623 282.685 89.6807 282.04 88.8105C281.395 87.9328 280.521 87.4939 279.418 87.4939V87.4939ZM279.418 85.7385C281.219 85.7385 282.633 86.3236 283.661 87.4939C284.688 88.6642 285.202 90.2847 285.202 92.3552C285.202 94.4182 284.688 96.0387 283.661 97.2165C282.633 98.3868 281.219 98.9719 279.418 98.9719C277.61 98.9719 276.192 98.3868 275.165 97.2165C274.144 96.0387 273.634 94.4182 273.634 92.3552C273.634 90.2847 274.144 88.6642 275.165 87.4939C276.192 86.3236 277.61 85.7385 279.418 85.7385Z" fill="black"/>
<path d="M296.917 87.9553V81.136H298.987V98.6456H296.917V96.7551C296.481 97.5053 295.93 98.0642 295.262 98.4318C294.602 98.7919 293.807 98.9719 292.877 98.9719C291.354 98.9719 290.112 98.3643 289.152 97.1489C288.199 95.9336 287.723 94.3357 287.723 92.3552C287.723 90.3747 288.199 88.7768 289.152 87.5614C290.112 86.3461 291.354 85.7385 292.877 85.7385C293.807 85.7385 294.602 85.9223 295.262 86.2899C295.93 86.6499 296.481 87.2051 296.917 87.9553V87.9553ZM289.861 92.3552C289.861 93.8781 290.172 95.0747 290.795 95.9449C291.425 96.8076 292.288 97.239 293.383 97.239C294.478 97.239 295.341 96.8076 295.971 95.9449C296.601 95.0747 296.917 93.8781 296.917 92.3552C296.917 90.8323 296.601 89.6395 295.971 88.7768C295.341 87.9065 294.478 87.4714 293.383 87.4714C292.288 87.4714 291.425 87.9065 290.795 88.7768C290.172 89.6395 289.861 90.8323 289.861 92.3552Z" fill="black"/>
<path d="M314.032 91.8263V92.8391H304.512C304.602 94.2644 305.03 95.3522 305.795 96.1024C306.568 96.8451 307.641 97.2165 309.013 97.2165C309.809 97.2165 310.578 97.1189 311.32 96.9239C312.07 96.7288 312.813 96.4363 313.548 96.0462V98.0042C312.806 98.3192 312.044 98.5593 311.264 98.7243C310.484 98.8894 309.692 98.9719 308.89 98.9719C306.879 98.9719 305.285 98.3868 304.107 97.2165C302.937 96.0462 302.352 94.4632 302.352 92.4677C302.352 90.4047 302.907 88.7693 304.017 87.5614C305.135 86.3461 306.639 85.7385 308.53 85.7385C310.225 85.7385 311.564 86.2861 312.547 87.3814C313.537 88.4692 314.032 89.9508 314.032 91.8263V91.8263ZM311.962 91.2186C311.947 90.0858 311.628 89.1819 311.005 88.5067C310.39 87.8315 309.572 87.4939 308.552 87.4939C307.397 87.4939 306.47 87.8203 305.773 88.4729C305.082 89.1256 304.685 90.0446 304.58 91.2299L311.962 91.2186Z" fill="black"/>
</svg>
